<?xml version="1.0" standalone="no"?>
<!DOCTYPE svg PUBLIC "-//W3C//DTD SVG 20010904//EN"
 "http://www.w3.org/TR/2001/REC-SVG-20010904/DTD/svg10.dtd">
<svg version="1.0" xmlns="http://www.w3.org/2000/svg"
 width="512.000000pt" height="512.000000pt" viewBox="0 0 512.000000 512.000000"
 preserveAspectRatio="xMidYMid meet">

<g transform="translate(0.000000,512.000000) scale(0.100000,-0.100000)"
fill=" hsl(166, 100%, 37%)" stroke="none">
<path d="M2265 4834 c-613 -83 -1167 -403 -1529 -884 -296 -393 -449 -826
-463 -1311 -12 -389 59 -726 222 -1067 l67 -139 -92 -304 c-50 -167 -94 -327
-97 -355 -12 -107 36 -224 124 -304 72 -66 145 -93 248 -93 72 0 111 10 384
92 l305 92 145 -69 c211 -101 393 -158 621 -198 128 -21 448 -30 592 -15 900
93 1658 699 1944 1556 82 246 116 457 116 725 0 269 -38 498 -124 750 -277
813 -1014 1413 -1871 1525 -145 19 -452 18 -592 -1z m566 -320 c1163 -162
1924 -1296 1638 -2439 -173 -693 -729 -1249 -1424 -1424 -185 -46 -262 -55
-485 -55 -229 0 -313 10 -510 61 -114 29 -293 99 -408 159 -96 50 -175 69
-247 60 -27 -3 -184 -47 -349 -96 -166 -50 -307 -88 -317 -85 -46 15 -44 31
52 352 50 170 94 333 96 364 7 69 -15 148 -67 244 -94 174 -177 435 -205 651
-72 552 90 1101 454 1536 304 363 770 615 1251 677 114 15 401 12 521 -5z"/>
<path d="M1640 3128 c-66 -34 -93 -79 -88 -149 5 -65 32 -109 82 -133 31 -14
124 -16 926 -16 802 0 895 2 926 16 50 24 77 68 82 133 5 70 -22 115 -88 149
l-44 22 -876 0 -876 0 -44 -22z"/>
<path d="M1632 2273 c-49 -24 -75 -68 -80 -132 -5 -70 22 -115 88 -148 l44
-23 556 0 556 0 44 23 c66 33 93 78 88 148 -5 65 -32 109 -82 133 -30 14 -99
16 -608 16 -507 0 -577 -2 -606 -17z"/>
</g>
</svg>
