<?xml version="1.0" standalone="no"?>
<!DOCTYPE svg PUBLIC "-//W3C//DTD SVG 20010904//EN"
 "http://www.w3.org/TR/2001/REC-SVG-20010904/DTD/svg10.dtd">
<svg version="1.0" xmlns="http://www.w3.org/2000/svg"
 width="512.000000pt" height="512.000000pt" viewBox="0 0 512.000000 512.000000"
 preserveAspectRatio="xMidYMid meet" >

<g transform="translate(0.000000,512.000000) scale(0.100000,-0.100000)"
fill="#ff5757" stroke="40"  >
<path  d="M3005 4813 c-12 -2 -32 -14 -47 -26 -24 -21 -1703 -2300 -1727 -2345
-32 -61 5 -157 69 -179 25 -9 181 -12 563 -12 498 -1 528 -2 523 -18 -3 -10
-103 -418 -221 -908 -144 -594 -214 -898 -210 -917 21 -93 136 -135 207 -75
21 18 1626 2195 1714 2325 48 70 19 173 -56 199 -25 9 -181 12 -563 12 -498 1
-528 2 -523 19 3 9 103 417 221 907 144 594 214 898 210 917 -9 38 -43 78 -81
94 -33 14 -42 15 -79 7z m-275 -1182 c-104 -431 -190 -797 -190 -815 0 -17 9
-46 20 -64 38 -62 36 -62 600 -62 280 0 510 -3 510 -6 0 -12 -1464 -1997
-1467 -1988 -2 5 82 362 187 793 104 431 190 797 190 815 0 17 -9 46 -20 64
-38 62 -36 62 -600 62 -280 0 -510 3 -510 6 0 12 1464 1997 1467 1988 2 -5
-82 -362 -187 -793z"/>
</g>
</svg>
